<?xml version="1.0" encoding="UTF-8"?>
<svg xmlns="http://www.w3.org/2000/svg" version="1.1" viewBox="0 0 2793 1431">
  <g id="univmap">
    <g id="univback">
      <path
        d="M663.8,1038.7l39.9-3.3.3,4.2,41.4-3,96.7-7.9,13.4.4,43,7.6,94.3,18.3,160,24.7,33,6.4,30,4.6,47.3,6.6,33.5,2.8,40.4,1.9h52.9l110.9-.5,223.5-1.9,48.1-.3,48.6,1,35.4,2.9,34.2,4,26.7,5.1,166.3,37.3,219.4-346.4-54.2-305.4-277.6-226.1-355.6-4-425.5,53.8-215.4-46.9-92.4-7.7-40.4,12.8-19.1,9.3-52.1,32.2-23.9,38.9-13.2,27.3-10.7,33.8-16.8,84.7,85.1,65-22.6,91.8,5.9,119-1.5,13.4-36.6,35.8-33.6,78-8.7,25.9-30.3,104h0Z"
        fill="#efefef" fill-rule="evenodd" stroke="#999" />
    </g>
    <g id="selectable">
      <g id="parking">
        <g id="_48" data-name="48">
          <path d="M1447.6,867l40.3,1.1.2-7.4-40.3-1.1-.2,7.4Z" fill="#e2e2e2" fill-rule="evenodd"
            stroke="#b5b5b5" stroke-width=".8" />
          <path d="M1446.1,912l40.3,1.1.2-7.4-40.3-1.1-.2,7.4Z" fill="#e2e2e2" fill-rule="evenodd"
            stroke="#b5b5b5" stroke-width=".8" />
          <path d="M1447.4,878.4l40.3,1.1.2-7.4-40.3-1.1-.2,7.4Z" fill="#e2e2e2" fill-rule="evenodd"
            stroke="#b5b5b5" stroke-width=".8" />
          <path d="M1447.4,901l40.3,1.1.2-7.4-40.3-1.1-.2,7.4Z" fill="#e2e2e2" fill-rule="evenodd"
            stroke="#b5b5b5" stroke-width=".8" />
          <path d="M1447.4,890l40.3,1.1.2-7.4-40.3-1.1-.2,7.4Z" fill="#e2e2e2" fill-rule="evenodd"
            stroke="#b5b5b5" stroke-width=".8" />
          <path d="M1446.1,923.6l40.3,1.1.2-7.4-40.3-1.1-.2,7.4Z" fill="#e2e2e2" fill-rule="evenodd"
            stroke="#b5b5b5" stroke-width=".8" />
          <path d="M1491.7,925.3l35.5,1.1.2-7.1-35.4-1.1-.2,7.1h0Z" fill="#e2e2e2"
            fill-rule="evenodd" stroke="#b5b5b5" stroke-width=".8" />
          <path d="M1492.3,902.8l35.4,1.1.2-7.1-35.5-1.1-.2,7.1h0Z" fill="#e2e2e2"
            fill-rule="evenodd" stroke="#b5b5b5" stroke-width=".8" />
          <path d="M1491.7,935.6l35.5,1.1.2-7.1-35.4-1.1-.2,7.1h0Z" fill="#e2e2e2"
            fill-rule="evenodd" stroke="#b5b5b5" stroke-width=".8" />
          <path d="M1492.3,913.7l35.4,1.1.2-7.1-35.5-1.1-.2,7.1h0Z" fill="#e2e2e2"
            fill-rule="evenodd" stroke="#b5b5b5" stroke-width=".8" />
          <path d="M1493,869.3l35.4,1.1.2-7.1-35.4-1.1-.2,7.1Z" fill="#e2e2e2" fill-rule="evenodd"
            stroke="#b5b5b5" stroke-width=".8" />
          <path d="M1450.4,934.4l35.4,1.1.2-7.1-35.4-1.1-.2,7.1Z" fill="#e2e2e2" fill-rule="evenodd"
            stroke="#b5b5b5" stroke-width=".8" />
          <path d="M1493,891.2l35.4,1.1.2-7.1-35.4-1.1-.2,7.1Z" fill="#e2e2e2" fill-rule="evenodd"
            stroke="#b5b5b5" stroke-width=".8" />
          <path d="M1493,879.9l35.4,1.1.2-7.1-35.4-1.1-.2,7.1Z" fill="#e2e2e2" fill-rule="evenodd"
            stroke="#b5b5b5" stroke-width=".8" />
          <path d="M1492.3,902.8l35.4,1.1.2-7.1-35.5-1.1-.2,7.1h0Z" fill="#e2e2e2"
            fill-rule="evenodd" stroke="#b5b5b5" stroke-width=".8" />
          <path d="M1491.7,935.6l35.5,1.1.2-7.1-35.4-1.1-.2,7.1h0Z" fill="#e2e2e2"
            fill-rule="evenodd" stroke="#b5b5b5" stroke-width=".8" />
          <path d="M1491.7,925.3l35.5,1.1.2-7.1-35.4-1.1-.2,7.1h0Z" fill="#e2e2e2"
            fill-rule="evenodd" stroke="#b5b5b5" stroke-width=".8" />
          <path d="M1492.3,913.7l35.4,1.1.2-7.1-35.5-1.1-.2,7.1h0Z" fill="#e2e2e2"
            fill-rule="evenodd" stroke="#b5b5b5" stroke-width=".8" />
          <path d="M1493,869.3l35.4,1.1.2-7.1-35.4-1.1-.2,7.1Z" fill="#e2e2e2" fill-rule="evenodd"
            stroke="#b5b5b5" stroke-width=".8" />
          <path d="M1493,891.2l35.4,1.1.2-7.1-35.4-1.1-.2,7.1Z" fill="#e2e2e2" fill-rule="evenodd"
            stroke="#b5b5b5" stroke-width=".8" />
          <path d="M1450.4,934.4l35.4,1.1.2-7.1-35.4-1.1-.2,7.1Z" fill="#e2e2e2" fill-rule="evenodd"
            stroke="#b5b5b5" stroke-width=".8" />
          <path d="M1493,879.9l35.4,1.1.2-7.1-35.4-1.1-.2,7.1Z" fill="#e2e2e2" fill-rule="evenodd"
            stroke="#b5b5b5" stroke-width=".8" />
          <path is-collision="true" d="M1447.6,934.3l79.6,2.4,1.4-73.4-80.8-3.7-.2,74.7Z"
            fill="none"
            fill-rule="evenodd" stroke-width="0" />
        </g>
        <g id="_47" data-name="47">
          <path
            d="M1535.2,956.9l91.6,8.9-9.4-22.5-3.1-13.6-7.3-29.3.5-40.3,5.2-11,1.6-28.2-57.8-6.5-17.1-1.9-4.2,144.5h0Z"
            fill="#e2e2e2" fill-rule="evenodd" stroke="#b5b5b5" stroke-width=".3" />
          <path
            d="M1545.7,1011.3l70.7,7.3,11,17.8,34.5,3.7,4.7-12.8,1.6-4.5-15.6-20.2-9.6-13.8-5.8-4.7-7.3-4.2-10.5-2.1-70.7-6.8-3.1,40.3h.1Z"
            fill="#e2e2e2" fill-rule="evenodd" stroke="#b5b5b5" stroke-width=".3" />
        </g>
        <path id="_46" data-name=" 46"
          d="M1617.1,857.8l5.2,54.1,7.7,25.8,12.9,1.3,4.3,19.2,62.7,41.4,16.8,9,117.3-43.8-5-14.3-56.9-162.3-8.4-1.1-40.6-5.3-8.7-1.2-38.3-5.4-22.2-1.3-19.7,8.4-12,6-3.4,4.6.5,17.8.7,27.8v11.5l-12.9,7.7h0Z"
          fill="#e2e2e2" fill-rule="evenodd" stroke="#b5b5b5" stroke-width=".3" />
      </g>
      <g id="ground">
        <path id="_45" data-name=" 45"
          d="M2013.8,807.8l5.1,28.4,19.1,31.4,35.1,30.1,42.3,16.8,47.3,1.3,45.4-14.2,20-29.1,8.7-36.4-2.5-31.5-11.9-38.4-33.3-75.1-23.4-8.1-54.6,25.2-43.6,24.7-16.6,14.3-26.6,31.6-10.7,29.1h.2Z"
          fill="#a9eac2" fill-rule="evenodd" stroke="#287053" stroke-width=".5" />
        <path id="_44" data-name=" 44"
          d="M1677.6,545.2l3.6,11,54.7,154.8,5.1,13.5,8.1,13.5,50,8.7,91.7-33.7-17.6-49.7-63-146.3-15.7-19.6-116.9,47.9h0Z"
          fill="#a9eac2" fill-rule="evenodd" stroke="#287053" stroke-width=".5" />
        <path id="_43" data-name=" 43"
          d="M1813.8,382.8l136-76,32.1,27.2,23.2-9.2,10.7,31.9,43.3,118.9,24.3,72.3,15,32-41.9,35.8-46.3,25.2-36.1,5.1-31.6-10.1-25.5-13.1-19.7-19.4-83.3-220.5"
          fill="#a9eac2" fill-rule="evenodd" stroke="#287053" stroke-width=".5" />
        <path id="_42" data-name=" 42"
          d="M1794.2,797.3l70,190.9,149.3-54.2-13.9-26-65.4-146.4-17.5-9.4-122.5,45h0Z"
          fill="#a9eac2" fill-rule="evenodd" stroke="#287053" stroke-width=".5" />
        <g id="_40" data-name=" 40">
          <path
            d="M1258.4,647.1l4.4,122.8,73.4,2.2,18-16.4-10.8-117.1-85.1,8.5h0Z" fill="#a9eac2"
            fill-rule="evenodd" stroke="#287053" stroke-width=".5" />
          <path
            d="M1360.7,637.5l11.4,115.1,18.7,15.7h40.2l-1-10,13.4-.7.7-29.8-10.7-96.4-12.4.7-55.5,4.8-4.7.5h0Z"
            fill="#a9eac2" fill-rule="evenodd" stroke="#287053" stroke-width=".5" />
        </g>
        <path id="_39" data-name=" 39"
          d="M1133.7,687.8l6,66.7,33-2.2.7-3,56.2-4.5-6.7-68.2-57,4.5.8,3.8-33,3h0Z" fill="#a9eac2"
          fill-rule="evenodd" stroke="#287053" stroke-width=".5" />
      </g>
      <g id="building">
        <path id="_38" data-name=" 38"
          d="M1112.2,402.5l3.7,49.9,115.3-8.6-1.3-17.3-2.9.2-.5-6.6,4.5-.3-.5-7.2-10.4.8-.8-10.8-89.1,6.7-.6-8.2-17.4,1.3h0Z"
          fill="#fdf9ef" fill-rule="evenodd" stroke="#7a6e65" stroke-width=".8" />
        <path id="_37" data-name=" 37"
          d="M1063.2,668.5l6.4,83.6,30.8-2.4-1-12.9,3.8-.4-.9-11.4-4,.2-2.5-33.3,20.9-2.1-4.4-46.3-4.7.3,3.1,33.1-16,1.6-.9-12.3-30.6,2.4h0Z"
          fill="#fdf9ef" fill-rule="evenodd" stroke="#7a6e65" stroke-width=".8" />
        <path id="_36" data-name=" 36"
          d="M1011.8,634.2l2.4,29.5,39.1-3.6-.6-9.2,24.4-2.1.2,3.9,4.2-.3-.2-3.9,17.4-1.6-2.4-27.2-17,1.4-5.3.5-23.7,2-.2-5.2-35.9,2.7,1.2,12.9-3.6.2h0Z"
          fill="#fdf9ef" fill-rule="evenodd" stroke="#7a6e65" stroke-width=".8" />
        <path id="_35" data-name=" 35"
          d="M1502.6,568.8l1.9,20.6,66-5.6,6.7-.6,35.5-3.6-1.9-20.2-36.6,3.3-4.7.4-31.8,2.9-.9-9.4-7.5.9.9,8.9-27.6,2.3h0Z"
          fill="#fdf9ef" fill-rule="evenodd" stroke="#7a6e65" stroke-width=".8" />
        <path id="_34" data-name=" 34"
          d="M1475.6,704.3l1.5,21.8h1.5l.8,11,29.9-1.9,5.5-.5,8.9-.6-.8-11.4h1.5l-1.5-21.8h-1.5l-.7-11.3-44.5,3.1.6,11.6h-1.4.2Z"
          fill="#fdf9ef" fill-rule="evenodd" stroke="#7a6e65" stroke-width=".8" />
        <path id="_33" data-name=" 33"
          d="M1112.7,636l.3,4.1,2.8-.2.4,4.6,5.4-.5.9,11h1.6l.8,8.7,32.4-2.7-.7-8.4h1.6l-.9-11.1,5.3-.4-.5-5.7-1.9.2-.2-2.8,1.9-.2-.5-6-5.3.4-.9-11-36.4,3,.9,11.3-4.8.4.4,5-2.5.2h-.1Z"
          fill="#fdf9ef" fill-rule="evenodd" stroke="#7a6e65" stroke-width=".8" />
        <path id="_32" data-name=" 32"
          d="M1528.6,607.6l1.8,21.2,64.5-5.6-1.8-21.3-21.5,1.9-.8-9.4,7.3-.6-.9-10.6-6.7.6.4,5-13,1.1.2,8.2-8.2,1.1.7,6.5-22,1.9h0Z"
          fill="#fdf9ef" fill-rule="evenodd" stroke="#7a6e65" stroke-width=".8" />
        <path id="_31" data-name=" 31" d="M1258.8,1056.3l51.8,5.5,3.2-29.8-51.8-5.5-3.2,29.8Z"
          fill="#fdf9ef" fill-rule="evenodd" stroke="#7a6e65" stroke-width=".8" />
        <path id="_30" data-name=" 30"
          d="M1442.5,839.2l59.9,1.9-.6,1.9,20.3,1,.9-24.8-44.1-2.2-.6,11.3-35.8-1v11.9h0Z"
          fill="#fdf9ef" fill-rule="evenodd" stroke="#7a6e65" stroke-width=".8" />
        <path id="_29" data-name=" 29" d="M1229.3,353.5l2.7,33,43.3-4.1-2.8-33-43.3,4.1h.1Z"
          fill="#fdf9ef" fill-rule="evenodd" stroke="#7a6e65" stroke-width=".8" />
        <path id="_28" data-name=" 28" d="M898,407.8l1.9,22.8,60.4-5.7-2.1-22.7-60.3,5.6h0Z"
          fill="#fdf9ef" fill-rule="evenodd" stroke="#7a6e65" stroke-width=".8" />
        <path id="_27" data-name=" 27" d="M1641,390.1l8.4,52.5,24.4-3.9-8.4-52.5-24.5,3.9h0Z"
          fill="#fdf9ef" fill-rule="evenodd" stroke="#7a6e65" stroke-width=".8" />
        <path id="_26" data-name=" 26" d="M1594.8,590.7l4.2,47.2,25.6-2.2-4.2-47.2-25.6,2.3h0Z"
          fill="#fdf9ef" fill-rule="evenodd" stroke="#7a6e65" stroke-width=".8" />
        <path id="_25" data-name=" 25"
          d="M825.9,408.9l1.5,19.6,34.5-3.1.4,2.7,6.9-.5-.2-2.9,7.9-.9-1.8-19.2-49.2,4.3h0Z"
          fill="#fdf9ef" fill-rule="evenodd" stroke="#7a6e65" stroke-width=".8" />
        <path id="_24" data-name=" 24"
          d="M1916.3,661.4l7.2,17.9,32.5-13.1-6.2-15.9-15.6,6.3-.8-2.1-17,7h0Z" fill="#fdf9ef"
          fill-rule="evenodd" stroke="#7a6e65" stroke-width=".8" />
        <path id="_23" data-name=" 23"
          d="M1995.2,1033.3l13.7,2.7,1.2-6.1,3.2.7,2.1-11.4-2.9-.6,1.1-5.9-13.5-2.9-4.9,23.5h0Z"
          fill="#fdf9ef" fill-rule="evenodd" stroke="#7a6e65" stroke-width=".8" />
        <path id="_22" data-name=" 22"
          d="M1300.7,945.5l12.2,1.3v12.9l84.4,1.3.6-12.2h12.2l1.3-85.1h-11v-12.3l-85.7-1.9-.7,11.6-11-.6-2.6,85.1h.3,0Z"
          fill="#fdf9ef" fill-rule="evenodd" stroke="#7a6e65" stroke-width=".8" />
        <path id="_21" data-name=" 21"
          d="M1622.1,468.8l3.6,30.2,57.6-6.8-1.3-11.2,12-1.4,1.6,13.4,54.2-6.4-15.9-134.1-53.6,6.4,9.8,82.8-14.4,1.7,2.2,18.9-55.8,6.6h0Z"
          fill="#fdf9ef" fill-rule="evenodd" stroke="#7a6e65" stroke-width=".8" />
        <path id="_20" data-name=" 20"
          d="M904,563.2l4.1,40.5,113.8-11.5-7.5-71.3-15.1,1.4-45.3,4.9,3.1,30.6-53,5.3h0Z"
          fill="#fdf9ef" fill-rule="evenodd" stroke="#7a6e65" stroke-width=".8" />
        <path id="_19" data-name=" 19"
          d="M1067,520l.6,4.4,31-3.3,2.8,27,24.5-2.1,47-4.1-7.6-73.6-37.1,3.4,1.4,11.7-34.4,3.4,2.6,30.2-30.8,3h0Z"
          fill="#fdf9ef" fill-rule="evenodd" stroke="#7a6e65" stroke-width=".8" />
        <path id="_18" data-name=" 18"
          d="M946.9,500.9l.7,7.4,49.8-4.7,1.8,18.7,15.1-1.4-1.6-17.3,7.2-.7-.9-9.8-7.4.7-2.4-25.7,41.1-3.9-2-21.7-47.3,4.5-9.1.9-41.4,3.9,4.6,48.5-8.1.8v-.2h0Z"
          fill="#fdf9ef" fill-rule="evenodd" stroke="#7a6e65" stroke-width=".8" />
        <path id="_17" data-name=" 17"
          d="M875.7,519.8l1.3,13.4,7.9-.8,1.3,16.9,5.9-.6.3,6.6,54.5-4.7-1.9-20.3,4.8-.5-.5-4.1,9.2-.8-1.5-13.2-8.9.4-.5-3.8-.7-7.4-4.6.2-1.2-11.9-54.5,5,.5,6.5-4.8.5,1.6,17.7-8.2,1h0Z"
          fill="#fdf9ef" fill-rule="evenodd" stroke="#7a6e65" stroke-width=".8" />
        <path id="_16" data-name=" 16"
          d="M1351.8,583.5l3.4,43.9,85.7-6.7-3.3-41.6-32.1,2.5-.5-6.6-34.6,2.7.3,4.2-19,1.5h0Z"
          fill="#fdf9ef" fill-rule="evenodd" stroke="#7a6e65" stroke-width=".8" />
        <path id="_15" data-name=" 15"
          d="M1017.5,473.3l1.5,19.8.9,9.8,1.2,18.9,2.5,22.6,45.6-4.3-1.6-15.6-.6-4.4,14.3-1.4,1-2,2.5-4.3.8-3.6v-3.7l-.9-5.2-1.2-3.6-3.9-6.2-3.6-3.1-5.2-2.8-7.1-.8-1.2-14.4-45,4.4h0Z"
          fill="#fdf9ef" fill-rule="evenodd" stroke="#7a6e65" stroke-width=".8" />
        <path id="_14" data-name=" 14" d="M1344.7,502.7l4.3,47.1,70.1-6.3-4.3-47.1-70.1,6.4h0Z"
          fill="#fdf9ef" fill-rule="evenodd" stroke="#7a6e65" stroke-width=".8" />
        <path id="_13" data-name=" 13" d="M1200.7,511.6l4.9,55.6,48.2-4.3-5.1-55.7-48,4.4Z"
          fill="#fdf9ef" fill-rule="evenodd" stroke="#7a6e65" stroke-width=".8" />
        <path id="_12" data-name=" 12"
          d="M1172.6,614.4l2.2,29.9,77.7-5.9v-1.6h1.2l-.4-6.1,18.5-1.6-1.2-15.7-19.7,1.6v4.6l-6.6.4-.9-11.2-21.3,1.8-.5-7.8-6.4.3.4,8.1-42.9,3.4v-.2h0Z"
          fill="#fdf9ef" fill-rule="evenodd" stroke="#7a6e65" stroke-width=".8" />
        <path id="_11" data-name=" 11"
          d="M1359.2,441.6l2.1,22.2,12.5-1.3,1,9.4h1l6.1-.5,49.6-4.5-4-41.5-56.2,5.4.8,9.5-13,1.2h0Z"
          fill="#fdf9ef" fill-rule="evenodd" stroke="#7a6e65" stroke-width=".8" />
        <path id="_10" data-name=" 10"
          d="M1506.5,394.3l.7,11.2,4.4-.5.5,9.1,55.2-4.2.9,11.6,3-.3,2.1-.2-1.1-11.6,29-1.8-1.5-20.5-10.7.9-4.5-51.3,3.4-.3-.6-6.5-9.8.7,3.5,44.9-10.3,1.4-.2-2.7-11.7,1,1.3,15.1-53.7,4.1h0Z"
          fill="#fdf9ef" fill-rule="evenodd" stroke="#7a6e65" stroke-width=".8" />
        <path id="_9" data-name=" 9"
          d="M1438.5,432l3.2,34.3,41.4-3.9-.4-7.8,9-.8,1.2,12.1,19.1-1.9-1.6-17.1-.7-8-.9-9.4-18.1,1.7-.8-10.2-10.1,1,.3,6-41.6,3.9h0Z"
          fill="#fdf9ef" fill-rule="evenodd" stroke="#7a6e65" stroke-width=".8" />
        <path id="_8" data-name=" 8"
          d="M964.2,407l2.6,21.1,22.9-1.7,2.1,21.3,9.1-.9-2.4-21.7,57.6-4.2-2-15.7,5.2-.6,1.2-.4,1-1,.2-1.5-.3-1.5-.9-1-1.1-.6h-1.4l-54.9,5.2-.8-9.7-.3-1.7-.9-1.2-1.1-.7h-1.8l-1.4.7-1,1.3-.2,1.6-9.7.8v-1l-.8-1.2-1.4-.7h-1.7l-1.5,1.1-1,1.7,1,10.8-16.4,1.3h.1Z"
          fill="#fdf9ef" fill-rule="evenodd" stroke="#7a6e65" stroke-width=".8" />
        <path id="_7" data-name=" 7"
          d="M1432.8,499.7l2.5,31.2,89.8-8.2-2.4-23.5-14.9,1.4.5,6.9-53.5,4.6-1.5-17.8-16.6,1.4.3,3.5-4.2.4h0Z"
          fill="#fdf9ef" fill-rule="evenodd" stroke="#7a6e65" stroke-width=".8" />
        <path id="_6" data-name=" 6"
          d="M1277.3,606.2l1.4,15.1,5.3-.5,1.1,11.7,53.8-4.9-3.1-33.7-54.8,5,.6,6.9-4.3.4Z"
          fill="#fdf9ef" fill-rule="evenodd" stroke="#7a6e65" stroke-width=".8" />
        <path id="_5" data-name=" 5"
          d="M1655.6,317.9l1.3,18.3,3.4-.2.8,11.6,61.3-4.4-2.1-30-64.8,4.7h0Z" fill="#fdf9ef"
          fill-rule="evenodd" stroke="#7a6e65" stroke-width=".8" />
        <path id="_4" data-name=" 4"
          d="M1509.7,438.9l.7,8,17.3-1.5,2.5,21.3,35.8-4.7-4.7-35.2-34.4,4.7.5,5.1-17.8,2.3h0Z"
          fill="#fdf9ef" fill-rule="evenodd" stroke="#7a6e65" stroke-width=".8" />
        <path id="_3" data-name=" 3"
          d="M1587,324.2l.4,5.6.6,6.5.7,8.4,34.6-3.1,1.2,10.8h2.5l2.5-.2-.6-10.9,21.1-1.8-1.7-20.9-61.2,5.6h0Z"
          fill="#fdf9ef" fill-rule="evenodd" stroke="#7a6e65" stroke-width=".8" />
        <path id="_2" data-name=" 2"
          d="M938.3,478.4l-3.9-38.8-51.4,4.8,4.4,39.4,44.5-4.5,1,10.5,6.6-.6-1.2-10.8h0Z"
          fill="#fdf9ef" fill-rule="evenodd" stroke="#7a6e65" stroke-width=".8" />
        <path id="_1" data-name=" 1"
          d="M1315.5,1065.4l66.4,6.4,103.1,4.5.6-15.5,1.3-34.1-69-15.5-17.4-.6-12.2,3.9-37.4,6.4-34.2-2.6-1.3,47h0Z"
          fill="#fdf9ef" fill-rule="evenodd" stroke="#7a6e65" stroke-width=".8" />
      </g>
    </g>
    <g id="grove">
      <path
        d="M1236,330.7l79.1,1.7,2.7,56.9h163.1l10.4-39.1,66.9-7.1,29.1-48.7-56-14.2-71.3-12.9-51.2.4-65-2.3-94.9,13.5-12.9,52v-.2h0Z"
        fill="#c3f1d5" fill-rule="evenodd" stroke-width="0" />
      <path
        d="M1393.1,786l41.5-2.3,9-6.3-2-14.4,14-.7-5.7-74,7.4-.7,5.3,44.8,5.7,23.4,3.7.7-8.4-75.3,8.6-6.4,44.9-4,81.4,55.7-7.9,21.9,11.4,4.5,12.1,4.7,9.6-17.8,18.4-35.6,21.3-45.4,2.4-7.2-.3-5.9-4.5-6.9-3.1-12.7-12.2-29.5-5,.5-9.4,3.6-4.7,4.1.5,36.7-26.2,14-83.8,8.5-.2-59.7-27.6,1.1-1.7-40.2-27.5,2.2-11.1,5.3,1.2,43.7-17,15,10.7,96.4-.7,29.8-13.4.7,1,10,4,8-10.7.7-30.8,2.3-.3,6.7h0Z"
        fill="#c3f1d5" fill-rule="evenodd" stroke-width="0" />
      <path
        d="M1096.4,855l4.5,6.4,10.3,6.4,4.5,5.1,3.8,33.3,20.5,2.6,9,3.8,6.4,4.5,11.5,14.1,11.5,11.5,11.5,5.1,10.2.6,13.5-11.5,43.6-58.9,5.1-14.7v-25.6l-5.8-14.1-16.7-14.7-12.2-2.6-17.3-1.3h-73l-41,40.4v9.6h0Z"
        fill="#c3f1d5" fill-rule="evenodd" stroke-width="0" />
      <path
        d="M1761.1,1061.2l9.6,22.4,24,10,46.6,2.8,35.4,2.8,16.7,1.4.7-15.3,18.1-4.2-6.9-15.3-8.4-7.9-4.1-9.5-8.1-10.8-6-16.6-29.6-11.5-20.8,18.1-18.8,2.1-13.9,4.2-12.5,6.3-14.1,6.9-7.6,14.3-.3-.2h0Z"
        fill="#c3f1d5" fill-rule="evenodd" stroke-width="0" />
      <path
        d="M1949.4,1109l43.9,13.5,14.6-13.5-5.6-20.2,15.6-9.1,16.1,38.5,14-9.9,9.9-18.8,14.6-10-1.5-3.7-.6-2.6.4-4.6,1-4.3,3.9-11.4,2.8-5.6,3.5-5.6,2.6-3,2.6-2.4-22.3-36.2-5.8-9.3-8.6-16.9-13.6-24.4-8.7,16.8,5.6,42.7,3.4,24.7-14.6,16.9-20.3,23.6-15.7-9-32.6,13.5-4.5,30.4h0Z"
        fill="#c3f1d5" fill-rule="evenodd" stroke-width="0" />
      <path d="M1220.6,478.4l2.4,27.8,34.9-3.1,4.8,54.4,62.4-5.5-7.2-82.3-97.3,8.6h0Z"
        fill="#c3f1d5" fill-rule="evenodd" stroke-width="0" />
      <path
        d="M1156.5,984l2.7,38.2,5.1,17.9,21.1,19.2,11.5-1.3,10.2-4.5,8.3-6.4,6.4-13.5,7.7-22.4,3.2-9,.6-15.4-3.2-13.5-3.8-7.1-4.5-7-7.7-1.9-7.7,4.5-9,7.7-12.2,7.7-11.8,5.5-17.2,1.1.3.2h0Z"
        fill="#c3f1d5" fill-rule="evenodd" stroke-width="0" />
      <path
        d="M1474.1,1087.3l3.2,11,62.5-.6,10.3-9.7-3.9-13.5-.7-12.9-7.1-7.7,3.2-14.2-3.6-8.6-2.2-21.7-18,13.5-16.1,6.4-7.7,3.2-8.4,28.3-.6,15.5-11,10.9h0Z"
        fill="#c3f1d5" fill-rule="evenodd" stroke-width="0" />
      <path
        d="M1634.9,742.1l1.5,7.5,3.1,5.5,17.9-.3,44.8-1.2,29,1.7,9.9.5-8.3-19.6-11.3-29.7-26-15.1,20.8,53.2.8,5.4-67.1-2.1-6.6-15.3,30.2-65-.8-.8-38,75.5v-.2h0Z"
        fill="#c3f1d5" fill-rule="evenodd" stroke-width="0" />
      <path
        d="M1246.3,951l2.5,9.1,24.4-8.4-7.9-23,14.9-24.8,6.6-22.4,5.8-29-15.7-2.5-5,36.4-12.4,19.9-10.8,20.7-2.5,13.2v10.8h0Z"
        fill="#c3f1d5" fill-rule="evenodd" stroke-width="0" />
      <path
        d="M1606.9,900.4l7.3,29.3,3.1,13.6,9.4,22.5,19.4,4.7,1-12.3-4.3-19.2-12.9-1.3-7.7-25.8-5.2-54.1,12.9-7.7-17.3-1-5.2,11-.5,40.3h0Z"
        fill="#c3f1d5" fill-rule="evenodd" stroke-width="0" />
      <path
        d="M1659.8,583.5l35.6,98.5,11.3,5.3-10.1-32,7.1-3.6-4.1-17.2-8.9,3.6-20.2-57.6-10.7,3h0Z"
        fill="#c3f1d5" fill-rule="evenodd" stroke-width="0" />
      <path d="M1269.5,783.4l2.9,3.2,37.6.6,37.3-.3v-10.1l-75.9-1.9-1.9,2.5v6Z" fill="#c3f1d5"
        fill-rule="evenodd" stroke-width="0" />
      <path d="M701.1,1013.6l5.9-1.3,32.4-91.3,9-10.1-9.1-7.8-6.6,9.7-11.2,36.8-20.3,64h-.1Z"
        fill="#c3f1d5" fill-rule="evenodd" stroke-width="0" />
      <path
        d="M1073.4,969.5l1,5.2,1.7,1.8,2.8.4,2.9.3,4.5-.4,37.1-3,5.6-1.2,2.6-2.8v-6.6l-.8-2.2-2.6-1.4-4.2-.9-43.8,5-6.1,2.2-.6,3.8v-.2h0Z"
        fill="#c3f1d5" fill-rule="evenodd" stroke-width="0" />
      <path
        d="M1608,469.1l1.7,23.6,23.1,26.4,6.7,2.2,7.3-2.8-14.6-9.6-12.4-15.8-3.4-29.2,21.9-42.2-1.7-3.9-28.7,51.2h0Z"
        fill="#c3f1d5" fill-rule="evenodd" stroke-width="0" />
      <path d="M1612.7,849.1l17.3,1v-11.5l-.7-27.8-12.5-.7-2.5,10.8-1.6,28.2h0Z" fill="#c3f1d5"
        fill-rule="evenodd" stroke-width="0" />
      <path d="M1646.2,970.5l22.7,12,27.1,13.8,15.9,8.5,14.7,3.8-16.8-9-62.7-41.4-1,12.3h.1Z"
        fill="#c3f1d5" fill-rule="evenodd" stroke-width="0" />
      <path d="M1556.5,814.3l57.8,6.5,2.5-10.8-59.5-1.3-.7,5.6h-.1Z" fill="#c3f1d5"
        fill-rule="evenodd" stroke-width="0" />
      <path d="M1733.1,781.8l40.6,5.3,4.7-7.8-15.2-1.4-28.6-2.8-1.5,6.6h0Z" fill="#c3f1d5"
        fill-rule="evenodd" stroke-width="0" />
      <path d="M1642.8,539.4l9,24.2,10.1-3.4-9.6-24.2-9.6,3.4h0Z" fill="#c3f1d5" fill-rule="evenodd"
        stroke-width="0" />
      <path d="M1663.9,773.8l22.2,1.3,38.3,5.4,2.3-6.3-33.2-2.8-13.4.9-16.3,1.4h0Z" fill="#c3f1d5"
        fill-rule="evenodd" stroke-width="0" />
      <path d="M751.7,869.7l.5,2.5,2.4.4,16.7-17.9-.4-4.3-1.3-1.9-1.9-1.4-2.9-.3-3.3.3-10,22.5h.2Z"
        fill="#c3f1d5" fill-rule="evenodd" stroke-width="0" />
      <path
        d="M819.2,822.8l.4,2.4,1.2,2.2,1.8,1.7,2.3,1,2.5.2,2.4-.6,2.1-1.3,1.5-1.9.8-2.3v-2.5l-.8-2.3-1.5-2-2.1-1.4-2.4-.6-2.4.2-2.3,1-1.8,1.7-1.2,2.2-.4,2.4h0Z"
        fill="#c3f1d5" fill-rule="evenodd" stroke-width="0" />
      <path d="M748.8,902.9l4.2,5,11.8-12.9-4-4.6-12.1,12.4h0Z" fill="#c3f1d5" fill-rule="evenodd"
        stroke-width="0" />
      <path d="M780.1,871.7l3.7,4.6,12.3-11.8-4.5-4.8-11.5,12Z" fill="#c3f1d5" fill-rule="evenodd"
        stroke-width="0" />
      <path d="M795.9,855.3l3.9,4.4,12.3-11.5-4.1-4.1-12.1,11.2h0Z" fill="#c3f1d5"
        fill-rule="evenodd" stroke-width="0" />
      <path
        d="M779.7,831.5l.6,1.8,1.1,1.5,1.6,1,1.7.5h1.8l1.7-.8,1.4-1.2.9-1.5.4-1.7-.2-1.8-.8-1.6-1.2-1.3-1.6-.8-1.8-.3-1.8.3-1.6.9-1.2,1.4-.7,1.7v1.9h-.3Z"
        fill="#c3f1d5" fill-rule="evenodd" stroke-width="0" />
      <path d="M764.6,886.9l4,4.1,11.3-11.8-3.2-4-12.1,11.7Z" fill="#c3f1d5" fill-rule="evenodd"
        stroke-width="0" />
    </g>
    <g id="ponds">
      <path d="M2131,938.5l-9.2,76.6" fill="none" stroke="#aad3df" stroke-width="2" />
      <path
        d="M2059.9,914.2l-10.6,15.1-2.4,3.7-8.6,13.5-1.4,2.8,13.6,24.4,8.6,16.9,5.8,9.3,3.7,2.8,10.4,4.2,12.7,3.4,27.2,4.9-10,24.2"
        fill="none" stroke="#aad3df" stroke-width="2" />
      <path
        d="M756.9,671.9l3.8,68.8-3.5,46-36.2,38-7.5,20.2-8.4,40.7-4.1,11.8-12.8,31.6-2.2,8-22.3,84.8"
        fill="none" stroke="#aad3df" stroke-width="2" />
      <path
        d="M2208.2,901.5l6,10.6-44.1,65.8-10.5,9.2-10.1,7.7-4.7,4.5-4.5,11.5-3.2,3.5-15.2.7-2.9.2"
        fill="none" stroke="#aad3df" stroke-width="2" />
      <path
        d="M940.1,712l1,25.3.9,21.1.4,1.3.8,1.1,1.1.4,4.7,1,30.9-1.6,59.1-3.3,7.7-7.5.2-72-.6-1.6-.8-1.2-29.5-1.9-3.1-1.1-7.8-2.2-4.5-2.9-15.1-13.1-28.5,3.4-3.5,1-9.6,7.2-1.2,4.1-.4,7.6-1,16.9-1,18h-.2,0Z"
        fill="#aad3df" fill-rule="evenodd" stroke-width="0" />
      <path
        d="M703.1,594.1l4.2,1.2,7.8-1.2,4.2,7.8,32.4,4.2,15-10.2,3.6-.6,4.8,4.2-3,11.4,7.2,2.4,3.6-10.8-1.2-6,1.8-20.4-34.9-27.6-5.4-12-24-9-3,11.4-6.6,24-1.8,15.6-4.8,15.6h.1Z"
        fill="#aad3df" fill-rule="evenodd" stroke-width="0" />
      <path
        d="M1759.9,247.4l.4,5.1,13.1,1.7,8.4,1.3,3.8,2.5,10.1,16.5,5.1,4.6h5.9l10.1-4.6,4.6.4,4.6,4.2,2.5,5.1,2.1-.4-8-24-3.8-3-3.8-2.1-5.5-.9-3-3.8-2.5-5.1-2.5-5.1-.4-5.5-3.8-5.5-5.1-4.6-6.3-5.1-9.5,4.5-11.2,5.2.4,5.9-5.9,12.6h.2Z"
        fill="#aad3df" fill-rule="evenodd" stroke-width="0" />
      <path
        d="M2070.4,1073l.6,2.6,1.5,3.7,7.2,8.4,6.4,3.2,3.6.7,3.2-.4,1.2-1.8v-3.1c.1,0-.5-3.9-.5-3.9l.2-3.8,1.5-3.8,2.3-4.3,3.8-5.7,3.3-6.3,2.4-5,2-5.5.6-6-.7-2.5-1.9-2.3-2.6-1.9-3.2-1.3-5-.7-4.4.6-4.4,2.3-2.6,2.4-2.6,3-3.5,5.6-2.8,5.6-3.9,11.4-1,4.3-.4,4.6h-.3Z"
        fill="#aad3df" fill-rule="evenodd" stroke-width="0" />
    </g>
    <g id="noNameBuilding">
      <path
        d="M1015.6,966.4l2.6,27.1,14.3-1.1-2.1-24.6,2.3-.2,4.2,40.7,14.8-1.8,2.8,30.9,38.3-3.6-1.9-22.4,34.1-3.4-1.7-16.1-34,3.3-.2-2.6-38.4,3.7v3.2l-7.5.6-3.8-44.2-7.7.7.6,5.2-2.6.4-.5-4.4-13,1.2.8,7.5h-1.4Z"
        fill="#e8e9ed" fill-rule="evenodd" stroke="#dcdfe9" stroke-width=".8" />
      <path
        d="M992.6,931.9l2.4,27.8,36.8-3.3,7.7-.7,18-1.8-.9-14.1,73.9-6.8-1-11.3-99.8,9-.2-1.1h1l-.9-10.1h-1.2l-3.3.4-1.6.2.9,9.9,1.8-.2v1.2l-15.8,1.4v-2.5l-17.9,1.9h0Z"
        fill="#e8e9ed" fill-rule="evenodd" stroke="#dcdfe9" stroke-width=".8" />
      <path d="M916.3,326l3.3,36.2,52.5-5.1-3.4-36.2-52.5,5.1h.1Z" fill="#e8e9ed"
        fill-rule="evenodd" stroke="#dcdfe9" stroke-width=".8" />
      <path d="M2171.6,549.3l12.9,33.3,44.8-17.6-12.9-33.1-44.8,17.4h0Z" fill="#e8e9ed"
        fill-rule="evenodd" stroke="#dcdfe9" stroke-width=".8" />
      <path
        d="M925.7,1023.5l2.3.3-1.8,10.1,6.9,1.5-1,5.1,4.8.8,1-5.1,5.6,1.2-.8,4.7,23.5,4.5,4.8-25.1-2.5-.5,2.4-12.7-36.8-7-3.2,17.2-1.9-.4-.5,2-2.2-.3-.5,3.6h0Z"
        fill="#e8e9ed" fill-rule="evenodd" stroke="#dcdfe9" stroke-width=".8" />
      <path
        d="M926.8,868.1l1,11.1,92.4-8.2.3,1.5-1.6.2,1.3,9.6h1.2l.2,1.3h3.2l-.3-1.8h1.6l-1.1-9.7-1.4.2v-1.7l8.3-.6-1.1-11.1-58,5.1-1-10.5-6.9.4.3,5.1h1.7l.8,5.4-17.8,1.6-.5-4.2-7.4.7.2,4.1-15.3,1.4h-.1Z"
        fill="#e8e9ed" fill-rule="evenodd" stroke="#dcdfe9" stroke-width=".8" />
      <path
        d="M1013,884.6l.8,11,8.9-.7,1.6,16h-.9l.2,6.4h1.2l.2,2.7,3.3-.3-.5-8.8-1.4-16.1,83.9-7.6-1.1-11.1-84.6,7.6h-3.2l-8.5,1h0Z"
        fill="#e8e9ed" fill-rule="evenodd" stroke="#dcdfe9" stroke-width=".8" />
      <path d="M1085.8,387.7l3.6,51.3,22.1-1.6-3.6-51.3-22.1,1.6Z" fill="#e8e9ed"
        fill-rule="evenodd" stroke="#dcdfe9" stroke-width=".8" />
      <path d="M863,298.6l1.6,27.6,40.9-2.6-1.5-23.1-33.5,2.1-.3-4.7-7.1.6h-.1Z" fill="#e8e9ed"
        fill-rule="evenodd" stroke="#dcdfe9" stroke-width=".8" />
      <path d="M1663.3,707.2l3.3,9.9-2.1.8,6.6,19.4,2.9-.8,2.5,5.8,19.9-7.5-12.8-34.8-20.3,7v.2h0Z"
        fill="#e8e9ed" fill-rule="evenodd" stroke="#dcdfe9" stroke-width=".8" />
      <path
        d="M989.2,325.3l2.8,31,30-2.7-1.1-12.3-7.2.7v1.1l-9.3.8-.7-8.9,2.7-.2-.9-9.2-2.5.3-.2-1.7-13.6,1.2h0Z"
        fill="#e8e9ed" fill-rule="evenodd" stroke="#dcdfe9" stroke-width=".8" />
      <path d="M2195.8,600.1l6.4,16.4,30.8-12.2-6.6-16.5-30.6,12.3h0Z" fill="#e8e9ed"
        fill-rule="evenodd" stroke="#dcdfe9" stroke-width=".8" />
      <path d="M810.4,321.6l16.2,9.6,14.6-25.7-16.2-9.2-14.6,25.3h0Z" fill="#e8e9ed"
        fill-rule="evenodd" stroke="#dcdfe9" stroke-width=".8" />
      <path d="M1169.9,671.6l.5,8.2,43.3-3.5-.7-8.3-43.2,3.5h0Z" fill="#e8e9ed" fill-rule="evenodd"
        stroke="#dcdfe9" stroke-width=".8" />
      <path d="M804.7,354.1l1.6,17.7,17.7-1.6-1-8.9,3.4-.3-.6-6.1-3,.2-.3-2.6-17.8,1.5h0Z"
        fill="#e8e9ed" fill-rule="evenodd" stroke="#dcdfe9" stroke-width=".8" />
      <path d="M744.1,900.1l2.6,2.7,61.2-60.3-2.6-2.6-61.2,60.3h0Z" fill="#e8e9ed"
        fill-rule="evenodd" stroke="#dcdfe9" stroke-width=".8" />
      <path d="M891.6,1017.6l29.2,5.1,1.5-10-28.8-5.1-2,10h0Z" fill="#e8e9ed" fill-rule="evenodd"
        stroke="#dcdfe9" stroke-width=".8" />
      <path d="M796,775.2l1.4,12.8,14.3-1.5-.3-2.9,8.8-.9-1.2-9.8-23,2.2h0Z" fill="#e8e9ed"
        fill-rule="evenodd" stroke="#dcdfe9" stroke-width=".8" />
      <path d="M1128.4,991.3l1.8,21.4,11.3-1-1.8-21.4-11.3,1Z" fill="#e8e9ed" fill-rule="evenodd"
        stroke="#dcdfe9" stroke-width=".8" />
      <path d="M828.1,352.4l1.2,17.2,13.7-1.1-1.5-17.2-13.4,1.1Z" fill="#e8e9ed" fill-rule="evenodd"
        stroke="#dcdfe9" stroke-width=".8" />
      <path
        d="M1136.5,665.7l.8,9.2,4.2-.3.3,3.4,8.8-.7-.3-3.2,7.2-.6-.9-10.8-7.2.6v1.5l-12.9,1.1v-.2Z"
        fill="#e8e9ed" fill-rule="evenodd" stroke="#dcdfe9" stroke-width=".8" />
      <path d="M2216.8,652.9l2,5.8,19.7-7.5,1,2.9,5.7-2.1-3.6-8.7-25,9.6h.2Z" fill="#e8e9ed"
        fill-rule="evenodd" stroke="#dcdfe9" stroke-width=".8" />
      <path d="M1999.3,1003.6l20.4,3.2,1.2-8.9-20.4-3.1-1.2,8.8Z" fill="#e8e9ed" fill-rule="evenodd"
        stroke="#dcdfe9" stroke-width=".8" />
      <path d="M1746,329.7l16.7,15.2,5.7-6.3-12.3-11.3-1.5,1.6-4.5-4.1-4.1,4.9h0Z" fill="#e8e9ed"
        fill-rule="evenodd" stroke="#dcdfe9" stroke-width=".8" />
      <path d="M1249.9,603.1l.5,8.5,20.4-1.7-.7-8.7-20.2,1.9h0Z" fill="#e8e9ed" fill-rule="evenodd"
        stroke="#dcdfe9" stroke-width=".8" />
      <path d="M1565.6,632.7l1.2,13.2,12.9-1.2-1.2-13.2-12.9,1.2Z" fill="#e8e9ed"
        fill-rule="evenodd" stroke="#dcdfe9" stroke-width=".8" />
      <path d="M692.1,963l46.2,13.3.9-3-45.9-14-1.2,3.6h0Z" fill="#e8e9ed" fill-rule="evenodd"
        stroke="#dcdfe9" stroke-width=".8" />
      <path d="M1733,334.7l10.2,2.9,4.4-14.3-10.3-2.9-4.3,14.3h0Z" fill="#e8e9ed"
        fill-rule="evenodd" stroke="#dcdfe9" stroke-width=".8" />
      <path d="M1509.4,735.2l1.9,28.6,5.5-.4-1.9-28.7-5.5.5h0Z" fill="#e8e9ed" fill-rule="evenodd"
        stroke="#dcdfe9" stroke-width=".8" />
      <path d="M844.2,846.3l10.7,11,7.1-7.6-10.6-10.8-7.2,7.3h0Z" fill="#e8e9ed" fill-rule="evenodd"
        stroke="#dcdfe9" stroke-width=".8" />
      <path d="M1653.9,721.1l7.6,21,6.5-2.7-7.9-21-6.2,2.7Z" fill="#e8e9ed" fill-rule="evenodd"
        stroke="#dcdfe9" stroke-width=".8" />
      <path d="M811.1,622.6l.7,7.1,21.5-2.1-.9-7.2-21.3,2.2Z" fill="#e8e9ed" fill-rule="evenodd"
        stroke="#dcdfe9" stroke-width=".8" />
      <path d="M810.4,613.2l.7,7.1,20.7-2.8-1-7.2-20.4,2.8h0Z" fill="#e8e9ed" fill-rule="evenodd"
        stroke="#dcdfe9" stroke-width=".8" />
      <path d="M1662.7,692.1l3.2,7.9,14.8-5-3.1-8.3-14.8,5.4h0Z" fill="#e8e9ed" fill-rule="evenodd"
        stroke="#dcdfe9" stroke-width=".8" />
      <path d="M842.3,350.1l.8,11.1,11-.7-.9-11.2-10.9.8h0Z" fill="#e8e9ed" fill-rule="evenodd"
        stroke="#dcdfe9" stroke-width=".8" />
      <path d="M2207.2,574.4l2,5.2,20.2-8.1-1.9-5-20.4,7.9h0Z" fill="#e8e9ed" fill-rule="evenodd"
        stroke="#dcdfe9" stroke-width=".8" />
      <path d="M1453.8,331.4l9.6,4.1,3.9-9.6-9.6-4.4-3.8,9.8h0Z" fill="#e8e9ed" fill-rule="evenodd"
        stroke="#dcdfe9" stroke-width=".8" />
      <path d="M1198.6,360.7l.3,8.5,12.6-.6-.6-8.5-12.3.6Z" fill="#e8e9ed" fill-rule="evenodd"
        stroke="#dcdfe9" stroke-width=".8" />
      <path d="M1779.4,351.6l14,8.3,3.2-5.5-13.9-8.5-3.3,5.7h0Z" fill="#e8e9ed" fill-rule="evenodd"
        stroke="#dcdfe9" stroke-width=".8" />
      <path d="M2123.2,695.7l1.6,3.7,24.4-10.8-1.7-3.4-24.3,10.5Z" fill="#e8e9ed"
        fill-rule="evenodd" stroke="#dcdfe9" stroke-width=".8" />
      <path d="M2045.8,678.9l5.4,11.2,6.8-3.3-5.1-11.2-7,3.2h0Z" fill="#e8e9ed" fill-rule="evenodd"
        stroke="#dcdfe9" stroke-width=".8" />
      <path d="M1665.8,290v7.1h13v-7.1h-13Z" fill="#e8e9ed" fill-rule="evenodd" stroke="#dcdfe9"
        stroke-width=".8" />
      <path d="M833.5,619.9l.9,6.7,13-1.8-.9-6.9-13.1,2h0Z" fill="#e8e9ed" fill-rule="evenodd"
        stroke="#dcdfe9" stroke-width=".8" />
      <path d="M2200.6,708.3l9.8,24.3,3.1-1.3-9.7-24.5-3.1,1.5h-.1Z" fill="#e8e9ed"
        fill-rule="evenodd" stroke="#dcdfe9" stroke-width=".8" />
      <path d="M1446.4,949.1l25,1v-3.2l-24.7-1-.3,3.2Z" fill="#e8e9ed" fill-rule="evenodd"
        stroke="#dcdfe9" stroke-width=".8" />
      <path d="M2170,681l19.3,7.6,1.4-3.7-19.2-7.2-1.5,3.3h0Z" fill="#e8e9ed" fill-rule="evenodd"
        stroke="#dcdfe9" stroke-width=".8" />
      <path d="M1449.3,774.2l8.9-.2-.3-8.4h-8.6v8.6h0Z" fill="#e8e9ed" fill-rule="evenodd"
        stroke="#dcdfe9" stroke-width=".8" />
      <path d="M993.7,889.2l.5,8.6,8.6-.5-1-8.9-8.1.8h0Z" fill="#e8e9ed" fill-rule="evenodd"
        stroke="#dcdfe9" stroke-width=".8" />
      <path d="M1612.1,946.2l8.3,15.8,3.5-1.8-8.4-15.7-3.4,1.7Z" fill="#e8e9ed" fill-rule="evenodd"
        stroke="#dcdfe9" stroke-width=".8" />
      <path d="M1604.5,928.7l6.9,16.1,3.4-1.5-6.7-16.3-3.6,1.7h0Z" fill="#e8e9ed"
        fill-rule="evenodd" stroke="#dcdfe9" stroke-width=".8" />
      <path d="M855.5,349.8l.8,8.7,7.6-.8-.9-8.7-7.5.8h0Z" fill="#e8e9ed" fill-rule="evenodd"
        stroke="#dcdfe9" stroke-width=".8" />
      <path d="M1759.1,477.2l1.2,12,5.2-.5-1.2-12.4-5.2.9Z" fill="#e8e9ed" fill-rule="evenodd"
        stroke="#dcdfe9" stroke-width=".8" />
      <path d="M1568.2,551.9l1.4,11.2,4.7-.4-.9-11.7-5.2.9Z" fill="#e8e9ed" fill-rule="evenodd"
        stroke="#dcdfe9" stroke-width=".8" />
      <path d="M1615.9,805.9l6.1.3.3-9.1-6.1-.2-.3,9Z" fill="#e8e9ed" fill-rule="evenodd"
        stroke="#dcdfe9" stroke-width=".8" />
      <path d="M913.2,309.3l1.2,11.6,4.3-.5-1.2-11.6-4.2.5h0Z" fill="#e8e9ed" fill-rule="evenodd"
        stroke="#dcdfe9" stroke-width=".8" />
      <path d="M1771.9,344.5l7.3,5.5,2.9-4.1-7.4-5.4-2.9,3.9h0Z" fill="#e8e9ed" fill-rule="evenodd"
        stroke="#dcdfe9" stroke-width=".8" />
      <path d="M1476,328.1l6.1,2.2,2.2-6.6-6.1-2-2.2,6.5h0Z" fill="#e8e9ed" fill-rule="evenodd"
        stroke="#dcdfe9" stroke-width=".8" />
      <path d="M2019.6,689.6l1.8,3.9,9.1-4.1-1.7-4-9.1,4.2h-.1Z" fill="#e8e9ed" fill-rule="evenodd"
        stroke="#dcdfe9" stroke-width=".8" />
      <path d="M1364,430.2l.7,9.2,4.2-.3-.7-9.2-4.2.3Z" fill="#e8e9ed" fill-rule="evenodd"
        stroke="#dcdfe9" stroke-width=".8" />
      <path d="M1479.6,679.9l.2,4.9,7-.3-.2-4.9-6.9.3h0Z" fill="#e8e9ed" fill-rule="evenodd"
        stroke="#dcdfe9" stroke-width=".8" />
      <path d="M1523.9,620.3l.5,6.1,5.2-.4-.5-6.1-5.3.4h.1Z" fill="#e8e9ed" fill-rule="evenodd"
        stroke="#dcdfe9" stroke-width=".8" />
      <path d="M2005.9,993.8l13.4,2.2.3-2.2-13.4-2.1-.3,2h0Z" fill="#e8e9ed" fill-rule="evenodd"
        stroke="#dcdfe9" stroke-width=".8" />
      <path d="M1667.9,681.4l1.5,4.7,5.6-2-1.9-4.6-5.3,1.9h.1Z" fill="#e8e9ed" fill-rule="evenodd"
        stroke="#dcdfe9" stroke-width=".8" />
      <path d="M1680,303.6l.3,7.3,3.8-.2-.3-7.4-3.8.2h0Z" fill="#e8e9ed" fill-rule="evenodd"
        stroke="#dcdfe9" stroke-width=".8" />
      <path d="M935,860.7l.2,4.6,6.1-.6-.4-4.4-6,.3h.1Z" fill="#e8e9ed" fill-rule="evenodd"
        stroke="#dcdfe9" stroke-width=".8" />
      <path d="M1506.9,947.6v7.9h3.2v-7.9h-3.2Z" fill="#e8e9ed" fill-rule="evenodd" stroke="#dcdfe9"
        stroke-width=".8" />
      <path d="M848.2,286.5l.4,4.1,5.9-.6-.4-4.1-5.9.6Z" fill="#e8e9ed" fill-rule="evenodd"
        stroke="#dcdfe9" stroke-width=".8" />
      <path d="M983.5,372.6v4.2l5.6-.2v-4.2l-5.6.2Z" fill="#e8e9ed" fill-rule="evenodd"
        stroke="#dcdfe9" stroke-width=".8" />
      <path d="M998.7,905.4l.7,5.5,2.9-.4-.7-5.5-2.9.4Z" fill="#e8e9ed" fill-rule="evenodd"
        stroke="#dcdfe9" stroke-width=".8" />
      <path d="M1511.8,678.7v3.5h4.1v-3.5h-4.1Z" fill="#e8e9ed" fill-rule="evenodd" stroke="#dcdfe9"
        stroke-width=".8" />
      <path d="M2242.4,632.5l1.1,3.8,3.4-.9-.9-4-3.5,1h-.1Z" fill="#e8e9ed" fill-rule="evenodd"
        stroke="#dcdfe9" stroke-width=".8" />
      <path d="M1127.8,934.7l.5,3.8,3.5-.4-.4-3.8-3.6.4Z" fill="#e8e9ed" fill-rule="evenodd"
        stroke="#dcdfe9" stroke-width=".8" />
      <path d="M1266.5,344v2.7h4.1c0-.1-.2-3-.2-3l-3.9.3Z" fill="#e8e9ed" fill-rule="evenodd"
        stroke="#dcdfe9" stroke-width=".8" />
      <path d="M1512.3,953.6h3.3v-3.4h-3.3v3.4Z" fill="#e8e9ed" fill-rule="evenodd" stroke="#dcdfe9"
        stroke-width=".8" />
      <path d="M1144.5,991.9l.3,2.8,3.2-.4-.3-2.8-3.2.4Z" fill="#e8e9ed" fill-rule="evenodd"
        stroke="#dcdfe9" stroke-width=".8" />
      <path d="M744.1,900.1l2.6,2.7,61.2-60.3-2.6-2.6-61.2,60.3h0Z" fill="#e8e9ed"
        fill-rule="evenodd" stroke="#dcdfe9" stroke-width=".8" />
    </g>
    <g id="roads">
      <path
        d="M1246.7,990.6l33.4,10.5,42.2,3.4,25.3-5.9,44.5-13.8,77.3-22.4h12.3l48.8,1.7,8.1.2,21.1.5,65.3,7.2,21.7,5.6,20.7,10.9,36.5,20.2,10,3.9,9.8,2.9,15.4.7,10.7-2.6,17.1-6.6,34.4-10.9,19.5-5.5h16l21.5,8.6,22.4,10.6,21.2,7.9"
        fill="none" stroke="#aab9c9" stroke-linecap="round" stroke-linejoin="round" stroke-width="7" />
      <path
        d="M910.7,784.9l-12.3-167.7,42.5-3.9,102.4-8.2,67.1-5.4,15.5-1.3,76.8-6.2,66.9-5.3,51.3-4.2,25-22.1,278-25.7"
        fill="none" stroke="#aab9c9" stroke-linecap="round" stroke-linejoin="round" stroke-width="7" />
      <path
        d="M1259.1,799.8l-101.3-2.6-32.7,1.9-98.9,8.9-4.1.3-30.1,2.3-10.6-.8-21.2-7.6-24.6-9.7-24.7-7.5"
        fill="none" stroke="#aab9c9" stroke-linecap="round" stroke-linejoin="round" stroke-width="7" />
      <path d="M786.7,807.6l-29.9,27.9-28.6,62.4-4.3,12.5-12.2,35.1-32.1,103.8" fill="none"
        stroke="#aab9c9" stroke-linecap="round" stroke-linejoin="round" stroke-width="7" />
      <path d="M1080.6,1076.2l85.8-6,22.8-2.4,11.5-2" fill="none" stroke="#aab9c9"
        stroke-linecap="round" stroke-linejoin="round" stroke-width="7" />
      <path d="M1619,769.3l-10.5,25.4-11,8.4-13.9,1.2-50-2.2-40.4-.5-61.6-2.3h-64.9l-107.6.6"
        fill="none" stroke="#aab9c9" stroke-linecap="round" stroke-linejoin="round" stroke-width="7" />
      <path d="M786.7,807.6l20.4-7.3,57.2-8.3,32-3.8,6.1-.7,8.3-2.4" fill="none" stroke="#aab9c9"
        stroke-linecap="round" stroke-linejoin="round" stroke-width="7" />
      <path
        d="M1619,769.3l20.1-2.4,32.8-4,62.9,2.1,33.2,7.1,33.5.5,54.9-21.1,62-30,35-18.7,36.1-19.3,78.4-36.7"
        fill="none" stroke="#aab9c9" stroke-linecap="round" stroke-linejoin="round" stroke-width="7" />
      <path d="M1624.1,534.9l44.2,105.6,3.8,15-41.7,85-11.4,28.8" fill="none" stroke="#aab9c9"
        stroke-linecap="round" stroke-linejoin="round" stroke-width="7" />
      <path
        d="M786.7,807.6l.5-42.7-.7-32.8-1.3-38.6-.8-29,3.1-17.5,11.3-33.8,6.1-17.4,5.4-24.6-2.5-24.8-5.7-16.7-24.9-48.9-8.2-24.7-2-20.3,2.8-18.3,4.8-14.7,7.2-9.4,11.5-4.7,29.5-3.7,38.7-3.8,105.5-11.6,59.4-5.1,48.6-1.7,15.2,3.1,33.8,18.5,15.1,1.6,65.5-5.6,14.9,4.7,66.8,56.6,9.3,7.9,42.7,5.8,2.8,36.9,98.8-5.5,88-5.4,45.7-.9,14.1,3.4,24.1,32.3,12.2,18.5"
        fill="none" stroke="#aab9c9" stroke-linecap="round" stroke-linejoin="round" stroke-width="7" />
      <path d="M1246.7,990.6l-11.5-34.1.8-19.4.6-15.6,33.7-54.5,1.1-33.9-12.4-33.4" fill="none"
        stroke="#aab9c9" stroke-linecap="round" stroke-linejoin="round" stroke-width="7" />
      <path d="M1200.6,1065.7l17.1-9.3,10.3-15.7,6.9-19,11.8-31.2" fill="none" stroke="#aab9c9"
        stroke-linecap="round" stroke-linejoin="round" stroke-width="7" />
      <path d="M1259.1,799.8l-.8-27.9-3.7-129.7,97.2-9.6" fill="none" stroke="#aab9c9"
        stroke-linecap="round" stroke-linejoin="round" stroke-width="7" />
      <path d="M910.7,784.9l32.5-5.2,52.5,1.8,51.6-.7,8.8-2.4,48-13.1" fill="none" stroke="#aab9c9"
        stroke-linecap="round" stroke-linejoin="round" stroke-width="7" />
      <path d="M793.5,388.6l-11.7-24.1-11.9-8.7-25.6-16.1" fill="none" stroke="#aab9c9"
        stroke-linecap="round" stroke-linejoin="round" stroke-width="7" />
      <path d="M805,595.8h11.8l8.4-33.6,15.1-109.2,10.1-13.4,16.8-1.4" fill="none" stroke="#aab9c9"
        stroke-linecap="round" stroke-linejoin="round" stroke-width="7" />
      <path d="M1236,937.1l-36.2,20.2-20.2,11.3-39.1,7.4-70.6,5.9-1.6-19.5,67.4-6.9,43.8,13.1"
        fill="none" stroke="#aab9c9" stroke-linecap="round" stroke-linejoin="round" stroke-width="7" />
      <path d="M1530.5,964l.3-12.1.6-27.4.6-26.9.2-26,.7-26.8.6-28.3v-14.5" fill="none"
        stroke="#aab9c9" stroke-linecap="round" stroke-linejoin="round" stroke-width="7" />
      <path d="M1587.8,484.1l3.4-4.8,43.6-75.4" fill="none" stroke="#aab9c9" stroke-linecap="round"
        stroke-linejoin="round" stroke-width="7" />
      <path d="M1953.4,702.7l15.4,12,46.9-9.4,17.6,1.2,16.4,5.9,18.1,20.4" fill="none"
        stroke="#aab9c9" stroke-linecap="round" stroke-linejoin="round" stroke-width="7" />
      <path
        d="M1645.7,798.5l25.7-9.6,20.1,1.6,26.7,3.7,53.8,7.5,1.6,4.3,8.8,24.4,8.9,24.7,8.8,24.4,9,24.9,8.9,24.9,9.3,25.8"
        fill="none" stroke="#aab9c9" stroke-linecap="round" stroke-linejoin="round"
        stroke-width="3.5" />
      <path
        d="M1838.9,950.5l-11.7,4.6-36.2,13.2-33.3,12.1-33.2,12.1-27.3-17.7-27.1-17.6-18.7-12.1-4.2-8.8-11.1-23.4-4-12.9-1.6-15.3.8-12.9,12.1-19.3.8-29.8,1.6-24.1"
        fill="none" stroke="#aab9c9" stroke-linecap="round" stroke-linejoin="round"
        stroke-width="3.5" />
      <path d="M1636.1,912.7l155.2-57.7" fill="none" stroke="#aab9c9" stroke-linecap="round"
        stroke-linejoin="round" stroke-width="3.5" />
      <path d="M1800.1,879.5l-152.9,56.6" fill="none" stroke="#aab9c9" stroke-linecap="round"
        stroke-linejoin="round" stroke-width="3.5" />
      <path d="M1791.1,968.2l10.4,27.8" fill="none" stroke="#aab9c9" stroke-linecap="round"
        stroke-linejoin="round" stroke-width="3.5" />
      <path d="M1697.2,974.7l120.7-45.4" fill="none" stroke="#aab9c9" stroke-linecap="round"
        stroke-linejoin="round" stroke-width="3.5" />
      <path d="M1639.1,766.8l6.6,31.6" fill="none" stroke="#aab9c9" stroke-linecap="round"
        stroke-linejoin="round" stroke-width="3.5" />
      <path d="M1644.1,822.6l74.2-28.4" fill="none" stroke="#aab9c9" stroke-linecap="round"
        stroke-linejoin="round" stroke-width="3.5" />
      <path d="M1670.1,957.1l138.9-52.7" fill="none" stroke="#aab9c9" stroke-linecap="round"
        stroke-linejoin="round" stroke-width="3.5" />
      <path d="M1630.4,884.6l152-54.2" fill="none" stroke="#aab9c9" stroke-linecap="round"
        stroke-linejoin="round" stroke-width="3.5" />
      <path d="M1767,1007l-9.2-26.7" fill="none" stroke="#aab9c9" stroke-linecap="round"
        stroke-linejoin="round" stroke-width="3.5" />
      <path d="M1643.3,852.4l118.3-42.6,12.1-3.7" fill="none" stroke="#aab9c9"
        stroke-linecap="round" stroke-linejoin="round" stroke-width="3.5" />
      <path
        d="M1533.4,816.5l76.1,8.5-1.5,20.1-7.2,6.6-.7,26.7.6,25.8,2.9,27.5,6.8,17.5.8,10.2-80.4-7.5"
        fill="none" stroke="#aab9c9" stroke-linecap="round" stroke-linejoin="round"
        stroke-width="3.5" />
      <path d="M1531.9,897.6l68.8,6.6" fill="none" stroke="#aab9c9" stroke-linecap="round"
        stroke-linejoin="round" stroke-width="3.5" />
      <path d="M1532.1,871.6l68,6.8" fill="none" stroke="#aab9c9" stroke-linecap="round"
        stroke-linejoin="round" stroke-width="3.5" />
      <path d="M1531.4,924.5l72.2,7.2" fill="none" stroke="#aab9c9" stroke-linecap="round"
        stroke-linejoin="round" stroke-width="3.5" />
      <path d="M1532.8,844.8l68,6.8" fill="none" stroke="#aab9c9" stroke-linecap="round"
        stroke-linejoin="round" stroke-width="3.5" />
      <path d="M1636.2,1004l1-3.7,15.3,2.3" fill="none" stroke="#aab9c9" stroke-linecap="round"
        stroke-linejoin="round" stroke-width="3.5" />
      <path d="M1538.6,964.2l1.3,12.1,16.2,11,2.1,8.4,78,8.4-.5,19.4,30.8,3.9" fill="none"
        stroke="#aab9c9" stroke-linecap="round" stroke-linejoin="round" stroke-width="3.5" />
      <path d="M755,1043.5l8-9.7,9.8-9.9,22.5-17.7,17.6-.6,73.6,11" fill="none" stroke="#aab9c9"
        stroke-linecap="round" stroke-linejoin="round" stroke-width="7" />
      <path d="M795.3,1006.1l10.8-9,13.2-8.7,14.6-7.9,13.6-5.8,7.3-1.8,9.1.3,42.8,5.6" fill="none"
        stroke="#aab9c9" stroke-linecap="round" stroke-linejoin="round" stroke-width="7" />
      <path d="M807.1,800.3l-2.3,19.7-2.9,12-1.1,2.2-76.9,76.2" fill="none" stroke="#aab9c9"
        stroke-linecap="round" stroke-linejoin="round" stroke-width="7" />
      <path d="M744.2,339.9l39.7-36.7,63.5-28.1,45.8-15.4,88-17.7,19.5-3.6,5-8.6-3.6-11.3"
        fill="none" stroke="#aab9c9" stroke-linecap="round" stroke-linejoin="round" stroke-width="7" />
      <path d="M1571.3,421.1l2.4,59.6" fill="none" stroke="#aab9c9" stroke-linecap="round"
        stroke-linejoin="round" stroke-width="7" />
      <path d="M1626.9,352.3l7.9,51.6" fill="none" stroke="#aab9c9" stroke-linecap="round"
        stroke-linejoin="round" stroke-width="7" />
      <path
        d="M2156.6,1218.3l-26.1-26-45.1-22.2-62.8-23-33.2-9.6-45.6-11.2-50.6-10.8-75.2-7.5-253.1-.8-293.2,1.4-191.1-32.3-78.2-12.3-130-24.3-20.1-1.8-24.4.4-72.8,5.2-75.4,5.9-73.4,6.3-24.1,3.5-40.4,16.6-14.3,9.6-11.5,15.6-14.3,23.2"
        fill="none" stroke="#aab9c9" stroke-linecap="round" stroke-linejoin="round"
        stroke-width="14" />
      <path d="M2161,1223.1" fill="none" stroke="#aab9c9" stroke-linecap="round"
        stroke-linejoin="round" stroke-width="14" />
      <path d="M744.2,339.9l-45-40.6-29.6-32.7" fill="none" stroke="#aab9c9" stroke-linecap="round"
        stroke-linejoin="round" stroke-width="14" />
      <path
        d="M744.2,339.9l-14.1,29.6-14.8,38.6-12.9,59.7-17.4,100.6-35.2,164.8-18.2,89.2-10.1,49.7-8.1,54.1-6.5,66.4-1,42.6.3,20.3,3.8,45.2,7.1,29.2,8.2,36.2"
        fill="none" stroke="#aab9c9" stroke-linecap="round" stroke-linejoin="round"
        stroke-width="14" />
      <path d="M1026.1,808l21.1-27.2" fill="none" stroke="#aab9c9" stroke-linecap="round"
        stroke-linejoin="round" stroke-width="7" />
      <path d="M968.1,848.4l-50.6-39.7-10.5-8.6-5.6-5-5.1-7" fill="none" stroke="#aab9c9"
        stroke-linecap="round" stroke-linejoin="round" stroke-width="7" />
      <path d="M1022,808.3l2.5,13,2.8,5.1,5.6,6.5-4.4,8.6" fill="none" stroke="#aab9c9"
        stroke-linecap="round" stroke-linejoin="round" stroke-width="7" />
      <path
        d="M1199.8,957.3l-15-7.4-9-4.6-26-26.3-3.2-3.4-5.4-2.8-5.7-1.5-6.5-1.1-13.2-.4-2.7-31.4-1.6-4.5-2.7-3.4-12.4-8.1-5-4-3.4-4.2,2.3-10.5,35.6-33.4-.8-11.1"
        fill="none" stroke="#aab9c9" stroke-linecap="round" stroke-linejoin="round" stroke-width="7" />
      <path d="M1115.8,909.7l-74.5,4.6-2.9-1.1-1.9-8.8" fill="none" stroke="#aab9c9"
        stroke-linecap="round" stroke-linejoin="round" stroke-width="7" />
      <path d="M1258.3,772l106.2,2.6" fill="none" stroke="#aab9c9" stroke-linecap="round"
        stroke-linejoin="round" stroke-width="7" />
      <path d="M1341.2,492.4l4.9,68.2,5.6,72,12.7,142,2.2,24.6" fill="none" stroke="#aab9c9"
        stroke-linecap="round" stroke-linejoin="round" stroke-width="7" />
      <path d="M1056,778.4v-5.4l-1.7-96.9" fill="none" stroke="#aab9c9" stroke-linecap="round"
        stroke-linejoin="round" stroke-width="7" />
      <path d="M1125.9,546v52.4" fill="none" stroke="#aab9c9" stroke-linecap="round"
        stroke-linejoin="round" stroke-width="7" />
    </g>
  </g>
</svg>